<?xml version="1.0" standalone="no"?><!DOCTYPE svg PUBLIC "-//W3C//DTD SVG 1.1//EN" "http://www.w3.org/Graphics/SVG/1.1/DTD/svg11.dtd"><svg width="100%" height="100%" viewBox="0 0 14027 11500" version="1.1" xmlns="http://www.w3.org/2000/svg" xmlns:xlink="http://www.w3.org/1999/xlink" xml:space="preserve" style="fill-rule:evenodd;clip-rule:evenodd;stroke-linejoin:round;stroke-miterlimit:1.41421;"><path d="M3891.65,4592.47c58.8764,-43.0186 88.7363,-113.704 88.7363,-212.731c0.1687,-98.521 -18.7257,-216.611 -56.3459,-352.415c-37.7889,-137.659 -88.2302,-288.984 -151.83,-455.828c-62.9252,-166.676 -126.188,-338.244 -189.957,-514.536c-63.2626,-176.629 -123.995,-353.427 -181.69,-531.406c-57.1894,-178.147 -98.6897,-347.86 -124.67,-510.824c-26.4859,-163.471 -30.0287,-312.433 -12.3151,-448.237c18.2196,-135.635 67.6488,-251.363 148.288,-344.655c-74.9029,17.0387 -152.168,47.4048 -231.625,91.6043c-79.7952,44.7056 -159.422,95.8218 -238.036,153.349c-146.601,107.968 -258.618,229.095 -336.22,363.549c-77.9395,134.454 -130.068,273.969 -156.216,418.039c-25.8111,143.227 -29.86,289.152 -11.809,436.765c18.3883,147.781 52.2971,287.971 102.738,420.57c50.7788,132.598 110.667,254.4 180.509,363.549c70.1793,109.993 143.227,198.898 219.648,267.221c76.4212,69.3358 152.674,114.716 229.601,135.635c75.9151,22.6058 144.914,10.6281 205.646,-33.4027c36.2706,-26.4859 55.8398,-60.7321 59.0451,-103.076c4.04881,-42.1751 -6.41061,-79.4578 -30.5348,-109.655c-24.6302,-31.0409 -61.0695,-48.0796 -110.499,-51.2849c-49.5979,-3.71141 -109.149,19.5692 -178.991,70.6854c-44.8743,-61.2382 -55.6711,-125.513 -33.9088,-195.692c21.5936,-69.3358 60.3947,-125.513 115.391,-167.182c55.6711,-43.0186 120.452,-63.9374 194.174,-61.913c73.722,1.1809 140.359,42.3438 199.235,123.826c40.1507,54.1528 63.9374,111.68 72.7098,172.918c8.43501,61.0695 4.38621,121.802 -11.9777,182.365c-16.3639,59.8886 -44.1995,118.765 -83.844,175.617c-39.982,57.3581 -87.7241,105.944 -144.745,147.781c-132.598,97.1714 -262.329,147.613 -389.866,153.349c-128.212,5.56711 -247.483,-24.1241 -358.657,-88.3989c-110.667,-63.7687 -210.032,-157.229 -297.925,-279.705c-88.2302,-122.476 -156.723,-261.992 -205.646,-417.871c-48.417,-156.554 -76.4212,-325.929 -83.3379,-507.619c-6.41061,-181.859 14.3395,-363.718 64.9496,-546.083c50.104,-181.859 132.092,-357.982 245.122,-530.394c113.367,-170.556 264.522,-325.76 453.804,-464.601c126.357,-92.1104 257.605,-164.145 394.59,-215.936c136.985,-51.1162 269.246,-73.2159 397.795,-63.0939c1.687,2.5305 0.843501,4.55491 -0.843501,6.24191l-6.74801,4.38621c-62.0817,63.0939 -90.4234,153.349 -86.8806,271.607c3.71141,118.09 26.992,255.075 69.6732,410.279c43.1873,155.879 98.1836,325.085 166.001,506.944c68.3236,182.534 135.466,369.285 202.778,560.591c67.1427,191.306 128.044,380.757 181.353,570.207c53.9841,189.282 85.8684,369.285 96.6653,539.672c10.7968,170.556 -5.39841,325.929 -47.7422,465.95c-42.3438,140.19 -125.85,255.75 -249.845,346.51c-58.3703,43.0186 -121.296,76.4212 -188.101,101.051c-66.4679,24.6302 -131.586,32.8966 -194.343,25.305c-62.7565,-6.91671 -120.958,-34.0775 -174.773,-79.4578c-54.1528,-44.8743 -98.521,-116.909 -132.767,-215.936c-25.8111,-64.4435 -31.547,-125.007 -15.183,-184.389c16.1952,-58.0329 43.8621,-109.824 83.844,-154.192c39.8133,-45.3804 86.5432,-80.1326 138.503,-104.594c53.1406,-24.7989 103.919,-34.7523 152.168,-31.0409c48.2483,4.38621 89.7486,25.9798 124.332,64.4435c35.4271,38.6324 54.8276,97.8462 58.3703,177.979c-47.7422,-3.03661 -84.1814,5.06101 -109.824,23.2806c-26.1485,19.0631 -43.8621,43.6934 -52.9719,73.3846c-10.4594,29.0164 -10.9655,59.3825 -4.04881,90.9295c7.08541,30.8722 21.4249,55.5024 42.5125,75.0716c21.2562,18.8944 48.7544,29.6912 82.157,31.0409c33.5714,0.506101 71.6976,-14.0021 114.379,-45.5491" style="fill:#f06eaa;fill-rule:nonzero;"/><path d="M8763.86,899.774c-128.718,48.5857 -249.676,152.842 -361.019,312.602c-111.005,160.434 -220.997,350.39 -329.303,570.713c-107.968,220.323 -215.936,461.564 -323.567,722.881c-108.137,261.317 -221.503,522.802 -341.787,782.769c-120.958,260.136 -251.026,507.619 -390.541,742.45c-139.853,235.506 -292.526,435.584 -458.359,601.754c39.1385,41.5003 81.6509,80.8074 128.887,117.247c45.043,36.7767 93.46,69.5045 142.046,100.545c179.328,114.885 359.5,165.326 541.697,148.962c182.702,-15.183 357.139,-78.4456 523.814,-187.595c167.013,-109.824 324.917,-258.111 473.036,-445.031c148.288,-186.92 276.5,-396.446 386.661,-630.602c109.149,-232.975 197.885,-479.952 267.053,-740.594c68.9984,-260.811 107.125,-517.741 115.391,-770.285c7.59151,-253.725 -17.8822,-494.967 -76.0838,-724.23c-59.5512,-229.095 -158.241,-429.174 -297.925,-601.585M7753.18,14.0971c238.88,21.4249 451.948,60.5634 638.193,115.56c186.414,56.1772 347.691,120.452 483.158,191.981c303.661,165.832 533.093,376.202 688.972,630.602c155.373,255.75 251.87,533.43 288.815,833.886c37.6202,300.624 22.0997,611.201 -45.043,931.9c-68.9984,321.374 -175.954,629.421 -322.892,923.634c-147.613,294.719 -326.604,563.29 -535.117,806.893c-209.694,243.603 -436.934,436.765 -682.561,580.835c-245.29,143.395 -501.209,225.384 -768.092,246.809c-267.053,20.7501 -530.731,-45.5491 -792.554,-198.223c-134.792,-84.6875 -246.471,-179.328 -335.714,-282.236c-125.176,96.6653 -257.437,168.532 -397.627,215.936c-139.684,47.4048 -291.177,63.7687 -452.792,49.9353c-111.848,-10.7968 -215.599,-35.4271 -313.108,-73.8907c-97.6775,-39.1385 -178.822,-95.3157 -242.928,-168.025c-64.7809,-71.8663 -104.932,-162.121 -121.296,-268.908c-16.0265,-106.619 2.1931,-236.18 54.1528,-385.818c39.1385,-99.5332 99.5332,-174.773 179.16,-225.215c79.9639,-51.9597 165.326,-82.8318 256.593,-93.6287c91.773,-11.3029 181.69,-3.71141 269.752,21.5936c87.8928,25.1363 157.229,65.1183 208.682,118.765c51.1162,54.3215 77.6021,121.127 78.6143,200.753c1.3496,79.4578 -36.9454,167.857 -114.379,264.522c-51.4536,-52.4658 -102.57,-80.8074 -154.023,-85.3623c-50.9475,-4.38621 -95.9905,5.73581 -134.623,29.6912c-39.1385,23.9554 -70.8541,58.0329 -96.6653,101.051c-24.7989,43.5247 -35.7645,86.5432 -30.8722,129.393c4.89231,43.6934 23.2806,83.3379 57.3581,118.596c32.8966,35.4271 90.5921,56.1772 171.568,63.9374c115.222,9.95332 225.046,-41.8377 330.653,-157.903c104.932,-114.716 208.007,-268.908 309.734,-462.07c101.22,-193.162 203.284,-414.328 305.01,-662.992c102.401,-249.339 209.694,-503.064 321.543,-761.85c111.68,-259.63 231.625,-511.499 358.994,-755.102c128.044,-245.122 265.366,-460.214 413.99,-647.134c147.95,-186.92 309.396,-331.496 484.845,-434.403c175.111,-101.726 366.586,-140.19 574.762,-111.68l-58.539,-63.7687c-111.173,-100.377 -258.28,-200.753 -441.151,-301.299c-182.196,-100.883 -401.338,-162.121 -657.425,-185.402c-367.429,-34.2462 -686.273,18.8944 -957.712,158.41c-270.089,138.84 -494.967,322.555 -672.945,551.819c-178.147,229.095 -309.565,482.82 -394.927,762.525c-85.8684,277.849 -130.405,539.841 -135.804,784.794c-5.06101,244.278 30.8722,451.948 108.137,623.01c77.096,170.556 192.318,262.666 346.342,276.668c67.9862,6.24191 125.682,-13.3273 173.086,-58.7077c46.73,-45.043 72.2037,-98.0149 75.409,-158.072c3.20531,-59.2138 -22.6058,-116.572 -78.1082,-171.568c-54.9963,-54.3215 -149.131,-87.7241 -280.886,-99.7019c9.78462,-115.56 63.0939,-201.428 158.41,-260.136c96.1592,-58.2016 198.223,-82.6631 307.203,-75.9151c109.318,8.94112 205.983,50.6101 289.321,127.031c83.1692,76.4212 117.921,191.306 104.088,345.329c-9.44722,102.907 -40.6568,193.162 -92.4478,272.788c-52.8032,78.9517 -119.102,145.082 -199.066,198.223c-79.9639,52.4658 -172.074,90.9295 -275.319,116.741c-103.076,25.305 -208.682,32.8966 -314.963,22.7745c-251.87,-22.7745 -454.31,-95.9905 -606.646,-219.648c-152.674,-123.151 -259.461,-278.355 -322.724,-464.601c-62.2504,-186.92 -82.157,-395.433 -59.5512,-625.709c23.2806,-229.938 85.6997,-460.214 188.438,-690.153c102.738,-228.589 242.591,-452.623 419.558,-668.559c176.292,-215.768 385.986,-404.712 628.577,-562.447c243.097,-159.084 516.392,-280.38 820.221,-361.862c304.673,-82.6631 636.337,-107.293 995.163,-74.3968" style="fill:#f06eaa;fill-rule:nonzero;"/><path d="M10167.1,4940.9c50.6101,8.26631 112.523,-27.8355 183.546,-106.619c71.3602,-79.6265 146.094,-181.859 223.19,-309.396c77.7708,-125.513 150.312,-262.666 220.829,-409.773c69.3358,-147.107 126.188,-285.947 169.544,-418.377c43.356,-132.092 68.3236,-243.266 74.3968,-332.846c6.07321,-90.2547 -18.557,-140.19 -73.3846,-149.637c-55.165,-8.26631 -119.44,25.8111 -193.162,105.438c-73.722,78.9517 -148.119,182.365 -223.359,308.722c-74.9029,126.863 -145.588,264.522 -210.538,411.629c-66.1305,148.456 -119.609,287.971 -160.603,420.57c-41.3316,132.43 -65.1183,242.928 -71.1915,333.183c-6.07321,90.9295 14.1708,139.515 60.7321,147.107M11118,2920.72c160.771,25.8111 280.38,76.9273 359.332,152.674c78.6143,76.4212 126.357,171.231 142.214,284.935c16.5326,112.86 3.54271,241.579 -36.7767,384.299c-41.669,143.395 -98.521,293.538 -172.243,450.767c-77.7708,157.229 -172.749,300.624 -285.778,431.873c-113.029,131.924 -232.132,242.422 -357.476,332.846c-126.188,89.4112 -253.05,155.71 -380.925,198.054c-128.718,41.669 -250.183,54.3215 -364.561,34.7523c-160.94,-25.8111 -280.549,-77.6021 -359.669,-154.023c-78.6143,-75.0716 -126.188,-170.556 -141.708,-282.742c-16.7013,-113.704 -3.71141,-242.591 36.7767,-385.818c40.9942,-143.395 98.3523,-292.864 171.568,-450.767c73.8907,-157.903 166.17,-301.636 276.837,-433.728c110.161,-131.924 228.758,-242.422 353.933,-332.677c125.344,-90.2547 254.063,-155.879 384.131,-197.548c131.08,-41.669 255.581,-53.1406 374.346,-32.8966" style="fill:#f06eaa;fill-rule:nonzero;"/><path d="M3858.78,5619.67c52.4658,109.824 58.0329,224.034 16.87,340.268c-41.3316,117.415 -115.222,200.922 -220.829,251.195c-114.885,54.3215 -229.432,60.7321 -344.486,18.3883c-114.885,-42.3438 -198.56,-119.271 -250.857,-229.264c-54.4902,-114.885 -60.9008,-227.239 -19.5692,-339.594c41.3316,-110.499 119.102,-194.343 233.987,-248.664c105.606,-50.6101 216.105,-56.852 330.99,-20.244c114.547,37.9576 199.404,113.029 253.894,227.914M4082.31,8673.99c13.3273,96.6653 27.8355,172.412 43.1873,227.239c14.8456,54.3215 33.4027,95.4844 53.3093,120.621c20.5814,25.1363 40.3194,39.8133 61.7443,43.5247c20.5814,3.88011 40.3194,3.88011 60.3947,-0.674801c46.0552,-5.56711 95.9905,-49.7666 151.155,-132.598c54.8276,-83.1692 81.6509,-193.837 80.1326,-333.858l92.6165,-44.1995c12.6525,161.784 5.56711,306.866 -19.7379,435.078c-25.305,128.044 -61.4069,240.398 -107.799,334.533c-46.73,95.3157 -101.22,174.267 -163.639,236.012c-62.5878,62.5878 -124.163,107.968 -185.57,137.659c-48.9231,23.4493 -101.22,36.608 -157.566,42.3438c-57.6955,6.24191 -112.354,-5.73581 -166.338,-34.0775c-54.8276,-28.3416 -106.281,-78.2769 -156.216,-148.288c-50.2727,-71.5289 -92.4478,-171.062 -126.863,-300.624c-38.8011,180.678 -91.773,371.309 -160.265,574.593c-68.1549,203.284 -154.867,400.157 -261.485,591.463c-106.112,190.8 -234.662,368.104 -387.167,532.249c-150.987,164.145 -332.34,296.069 -544.058,397.12c-308.047,147.107 -586.402,184.896 -833.211,113.704c-247.821,-72.035 -462.407,-218.636 -645.279,-442.67c-181.859,-224.034 -330.484,-505.763 -446.718,-845.357c-115.897,-339.594 -192.993,-706.348 -232.3,-1100.26c-39.982,-395.265 -40.6568,-800.652 -3.03661,-1215.49c36.9454,-414.834 116.066,-806.05 238.036,-1175.5c121.633,-368.104 287.803,-697.07 498.003,-986.728c211.044,-289.827 468.481,-506.944 772.816,-652.195c228.42,-108.643 428.33,-149.468 597.874,-121.802c169.881,26.4859 306.022,95.3157 409.942,205.14c104.257,109.824 171.737,248.158 205.14,412.978c32.5592,166.001 24.6302,335.882 -24.6302,510.656c-49.4292,174.942 -139.684,339.762 -271.101,494.461c-132.092,154.529 -311.083,272.114 -537.31,352.921c-131.924,51.6223 -248.327,68.1549 -349.21,49.2605c-101.22,-20.4127 -188.776,-50.104 -262.16,-90.4234c-82.3257,-47.2361 -154.023,-107.968 -215.768,-181.184c137.828,-17.0387 261.317,-68.1549 369.791,-151.493c108.137,-84.0127 197.885,-179.328 268.571,-285.947c70.5167,-106.787 120.452,-215.936 148.794,-326.435c28.1729,-111.173 30.8722,-203.959 8.60371,-279.705c-22.9432,-75.7464 -73.722,-126.188 -152.842,-150.818c-79.4578,-23.4493 -191.644,-2.0244 -336.051,68.1549c-207.839,97.8462 -370.635,258.786 -489.4,479.109c-118.428,222.178 -201.091,479.784 -246.809,774.672c-46.5613,294.719 -59.2138,611.876 -39.982,946.915c19.9066,336.557 65.4557,669.909 136.479,1001.24c71.6976,330.99 163.133,642.242 275.825,934.431c112.017,293.032 238.374,542.371 379.576,747.005c141.371,205.646 291.177,353.427 450.261,442.501c158.578,89.0737 321.374,93.9661 489.062,14.5082c180.341,-86.5432 336.051,-222.178 465.781,-409.098c130.237,-185.57 238.374,-386.324 325.592,-601.079c87.218,-213.912 155.71,-424.281 205.646,-631.951c49.4292,-206.995 84.5188,-375.696 104.088,-503.908l-242.76,-1667.77l594.331,-283.416c42.8499,282.742 81.1448,544.902 115.897,787.83c30.7035,212.731 62.2504,422.257 93.1226,628.746c31.0409,207.164 53.8154,360.513 69.5045,460.889" style="fill:#f06eaa;fill-rule:nonzero;"/><path d="M5325.92,6670.08c-37.1141,11.9777 -68.8297,48.0796 -94.6409,106.112c-25.9798,58.7077 -45.8865,127.537 -59.0451,207.164c-13.496,80.1326 -23.7867,167.857 -31.7157,263.172c-7.76021,96.6653 -14.5082,188.776 -18.3883,277.681l73.722,1602.99l-628.409,221.672l-136.479,-2908.56l628.409,-220.154l21.931,480.965c46.2239,-161.109 107.631,-300.624 182.871,-417.365c74.9029,-116.066 172.58,-195.692 292.358,-238.036c146.938,-51.791 257.268,-30.8722 328.122,63.0939c72.2037,94.1348 119.44,224.709 141.877,392.228c22.7745,168.532 32.2218,357.139 28.8477,568.014c-3.71141,211.044 -6.57931,404.881 -9.44722,580.835c-2.3618,176.798 5.73581,321.374 24.2928,434.403c18.7257,111.848 65.1183,154.698 138.503,129.393c37.2828,-13.1586 88.5676,-54.8276 154.529,-123.657c65.7931,-69.5045 105.775,-174.267 118.934,-313.783l96.4966,-34.2462c-5.06101,162.458 -27.6668,306.36 -66.1305,430.692c-39.1385,124.838 -87.7241,232.3 -146.601,323.23c-58.8764,90.2547 -121.127,162.964 -187.426,216.611c-66.2992,54.8276 -129.224,92.1104 -189.45,112.86c-155.879,55.165 -273.463,36.7767 -352.246,-54.8276c-78.4456,-90.9295 -133.442,-219.142 -165.664,-383.793c-32.0531,-164.145 -48.0796,-349.716 -48.0796,-556.88c0,-207.164 0.843501,-398.301 3.88011,-574.593c2.3618,-177.304 -1.5183,-323.736 -10.6281,-439.296c-10.122,-114.885 -39.982,-163.639 -90.4234,-145.926" style="fill:#f06eaa;fill-rule:nonzero;"/><path d="M7585.76,5940.35c-62.4191,10.6281 -122.476,59.3825 -179.16,148.288c-57.1894,88.3989 -107.462,198.392 -149.637,328.966c-42.8499,130.743 -77.6021,274.813 -103.582,432.548c-25.8111,157.229 -41.1629,310.409 -47.4048,459.54c87.218,15.6891 166.845,-8.94112 237.361,-72.5411c71.3602,-63.7687 132.43,-147.781 185.064,-253.219c51.791,-104.763 93.1226,-218.467 124.67,-342.799c31.8844,-123.826 49.5979,-238.542 53.9841,-346.679c5.56711,-106.619 -2.1931,-194.343 -20.244,-263.172c-19.2318,-68.1549 -52.4658,-99.0271 -101.051,-90.9295M7703.85,5713.11c159.253,-26.4859 284.935,0 377.045,79.6265c92.1104,78.1082 150.312,184.221 174.267,316.144c24.4615,130.743 17.2074,279.03 -19.0631,443.85c-37.9576,164.82 -104.594,318.844 -202.272,463.42c-97.3401,144.407 -222.684,267.727 -376.876,370.635c-153.517,101.558 -333.689,156.554 -539.841,166.001c16.0265,185.57 55.165,336.388 119.609,454.479c64.4435,118.765 163.471,166.001 298.431,144.576c158.41,-25.8111 300.624,-100.883 426.306,-222.853c126.357,-121.97 234.325,-254.4 323.567,-397.627c101.726,-164.82 190.631,-347.86 266.546,-548.782l115.391,-19.5692c-73.722,274.644 -173.424,521.621 -301.299,739.919c-52.9719,97.8462 -113.367,193.837 -182.534,286.116c-69.1671,92.7852 -145.926,179.328 -231.963,257.437c-85.531,78.4456 -181.522,145.926 -285.61,202.778c-104.594,56.852 -216.78,94.8096 -337.232,114.21c-226.396,37.7889 -411.797,-0.506101 -557.048,-115.56c-144.914,-114.21 -247.315,-269.414 -306.697,-464.601c-58.7077,-195.692 -79.6265,-416.015 -60.0573,-661.643c18.7257,-245.628 80.3013,-479.109 184.389,-701.287c104.425,-223.022 249.508,-418.039 434.403,-587.246c184.389,-169.206 411.123,-275.825 680.537,-320.024" style="fill:#f06eaa;fill-rule:nonzero;"/><path d="M9636.68,6624.62c34.0775,-95.8218 59.2138,-171.737 76.4212,-227.239c17.0387,-54.8276 27.8355,-97.1714 31.547,-126.188c3.20531,-29.6912 1.0122,-48.5857 -8.26631,-58.7077c-9.61592,-10.7968 -23.9554,-18.3883 -43.356,-24.6302c-53.3093,-6.91671 -105.269,22.0997 -157.229,88.3989c-52.4658,65.6244 -107.462,146.432 -165.326,241.073l-665.185,1904.12l-657.762,-30.3661l952.482,-2747.45l665.523,30.1974l-117.415,324.579c87.3867,-93.46 180.003,-168.532 277.849,-225.384c98.0149,-56.852 197.717,-83.3379 300.118,-78.2769c97.8462,3.71141 176.46,37.2828 237.193,98.521c60.3947,61.913 82.157,177.473 64.4435,347.86c103.582,-122.476 210.875,-221.672 321.543,-296.744c111.005,-75.7464 224.54,-110.499 341.787,-105.438c155.879,6.91671 249.676,67.4801 281.561,181.184c30.7035,113.704 27.1607,252.544 -11.809,417.365c-39.6446,163.471 -99.7019,343.474 -182.028,536.636c-82.4944,195.018 -157.566,373.671 -225.89,535.961c-68.4923,162.796 -115.054,299.949 -139.684,411.629c-24.6302,111.005 0,168.7 72.8785,171.737c53.3093,1.3496 121.296,-17.0387 203.959,-56.852c81.9883,-39.8133 156.385,-121.802 219.479,-246.134l117.247,5.06101c-65.6244,148.288 -140.865,273.294 -225.89,374.177c-85.1936,101.22 -171.062,183.209 -256.424,245.122c-85.3623,61.7443 -169.375,105.438 -251.532,131.924c-81.6509,25.305 -153.686,35.9332 -217.286,32.8966c-127.2,-5.73581 -216.949,-41.1629 -270.089,-106.787c-53.3093,-66.2992 -81.4822,-152.674 -83.1692,-260.811c-2.6992,-107.968 13.8334,-227.239 49.0918,-359.669c35.2584,-133.442 79.2891,-269.077 132.598,-408.592c52.1284,-138.334 107.293,-273.969 164.483,-406.568c57.1894,-131.249 105.269,-250.014 144.239,-355.451c39.4759,-106.112 64.1061,-189.957 74.5655,-253.219c9.44722,-63.0939 -5.22971,-95.3157 -43.6934,-97.1714c-43.8621,-1.8557 -92.4478,30.8722 -147.275,99.7019c-54.3215,68.3236 -111.511,152.168 -168.532,252.544l-25.305,71.3602l-631.783,1788.05l-657.594,-29.6912c90.7608,-269.752 177.473,-519.091 260.811,-750.041c34.4149,-101.726 69.8419,-202.103 106.112,-302.48c35.9332,-100.883 70.1793,-198.898 100.883,-292.864c31.0409,-93.46 61.0695,-179.328 89.0737,-255.244c27.4981,-76.9273 50.104,-139.346 66.6366,-188.101" style="fill:#f06eaa;fill-rule:nonzero;"/><path d="M12276.3,8081.8c33.5714,-66.8053 76.4212,-137.491 128.381,-214.081l807.568,-1270.82c-26.3172,-17.7135 -52.8032,-29.6912 -80.9761,-37.7889c-75.2403,-20.9188 -164.989,0 -269.246,64.9496c-104.257,63.7687 -210.369,153.517 -318.675,267.053c-107.631,113.704 -213.406,239.217 -314.795,375.021c-101.895,136.31 -184.558,267.053 -248.327,393.409c-63.0939,126.863 -101.051,234.662 -114.885,325.085c-12.3151,90.086 11.6403,144.576 73.5533,161.446c46.3926,13.3273 102.738,10.122 169.206,-9.27852c66.2992,-19.5692 122.476,-37.2828 168.194,-54.9963M14028,6507.83c-145.588,227.914 -282.404,443.344 -410.11,645.447c-109.486,170.893 -218.129,341.955 -326.941,511.162c-108.98,169.881 -190.463,297.419 -245.29,383.962c-106.281,162.796 -159.759,269.583 -159.759,323.061c0,53.1406 17.7135,90.4234 52.1284,110.667c48.5857,27.8355 119.946,29.0164 216.274,3.71141c95.6531,-25.8111 189.619,-92.7852 279.874,-199.572l99.1958,28.5103c-97.5088,129.393 -198.392,234.325 -301.805,313.783c-103.919,80.1326 -205.477,140.19 -305.179,180.509c-100.545,39.8133 -193.331,63.2626 -278.355,69.5045c-85.6997,6.24191 -158.747,1.1809 -219.816,-16.5326c-84.5188,-23.9554 -157.566,-71.1915 -219.142,-141.202c-61.2382,-70.1793 -74.9029,-182.028 -41.669,-335.376c-128.55,75.7464 -267.559,131.418 -420.064,167.351c-151.83,35.2584 -291.008,34.7523 -418.208,-0.674801c-89.2424,-25.305 -155.71,-75.9151 -200.416,-151.493c-44.1995,-76.4212 -56.6833,-176.798 -37.4515,-299.274c20.9188,-124.332 75.9151,-272.114 167.351,-443.85c91.6043,-171.737 225.721,-364.73 402.856,-578.136c178.316,-218.467 376.876,-391.553 595.175,-520.272c218.804,-128.212 437.609,-214.755 655.232,-259.461c218.129,-45.043 425.462,-49.9353 620.48,-15.8578c195.524,36.1019 360.85,110.499 495.641,224.034" style="fill:#f06eaa;fill-rule:nonzero;"/><path d="M3455.81,10927.2c0,0 2357.08,-1451.5 3915.36,-1719.06c1065.68,-183.715 1640.61,-232.3 2225.49,-217.286c1332.73,33.5714 2243.71,513.186 2243.71,513.186c0,0 -260.305,101.726 -348.197,82.157c-1337.12,-287.128 -1617.84,-232.975 -2161.39,-253.219c-644.772,-25.8111 -1319.74,135.129 -1752.46,216.611c-269.583,51.2849 -796.097,203.959 -1057.58,284.26c-322.555,98.3523 -955.856,329.978 -1262.89,465.781c-247.483,110.499 -719.675,378.057 -976.943,462.745c-199.066,65.1183 -825.113,164.82 -825.113,164.82" style="fill:#f06eaa;fill-rule:nonzero;"/></svg>