<?xml version="1.0" standalone="no"?><!DOCTYPE svg PUBLIC "-//W3C//DTD SVG 1.1//EN" "http://www.w3.org/Graphics/SVG/1.1/DTD/svg11.dtd"><svg width="100%" height="100%" viewBox="0 0 74 74" version="1.1" xmlns="http://www.w3.org/2000/svg" xmlns:xlink="http://www.w3.org/1999/xlink" xml:space="preserve" style="fill-rule:evenodd;clip-rule:evenodd;stroke-linejoin:round;stroke-miterlimit:1.41421;"><path d="M74.7833,37.3917c0,20.6542 -16.7417,37.3958 -37.3917,37.3958c-20.6542,0 -37.3917,-16.7417 -37.3917,-37.3958c0,-20.6542 16.7375,-37.3917 37.3917,-37.3917c20.65,0 37.3917,16.7375 37.3917,37.3917" style="fill:#f06eaa;fill-rule:nonzero;"/><path d="M47.2483,47.7433l-15.9083,0c-1.32917,0 -2.4,-1.1875 -2.4,-2.65c0,-1.46667 1.07083,-2.64583 2.4,-2.64583l15.9083,0c1.31667,0 2.3875,1.17917 2.3875,2.64583c0,1.4625 -1.07083,2.65 -2.3875,2.65M32.24,26.8183l7.525,0c1.54167,0 2.7875,1.15417 2.7875,2.57917c0,1.425 -1.24583,2.57917 -2.7875,2.57917l-7.525,0c-1.5375,0 -2.77917,-1.15417 -2.77917,-2.57917c0,-1.425 1.24167,-2.57917 2.77917,-2.57917M60.14,35.4017c-0.104167,-2.52917 -1.05417,-3.15833 -3.675,-3.47083c-0.191667,-0.025 -0.383333,-0.0625 -0.579167,-0.0916667c-3.05417,-0.504167 -3.10833,-0.566667 -3.55833,-3.625c-0.925,-6.29167 -5.18333,-11.2 -11.3917,-12.2083c-3.57083,-0.583333 -7.30417,-0.245833 -10.9625,-0.225c-5.62917,0.0333333 -12.0125,5.225 -12.8083,11.3167c-0.429167,3.2625 -0.191667,9.66667 -0.283333,9.66667c0,2.54583 0.0875,5.40833 0.108333,7.95c0.0541667,7.22083 5.75,13.6333 12.9583,14.075c5.55833,0.345833 11.15,0.325 16.7167,0.125c6.67917,-0.241667 12.2667,-5.05833 13.2417,-11.6667c0.570833,-3.87917 0.395833,-7.90417 0.233333,-11.8458" style="fill:#fff;"/></svg>