<?xml version="1.0" standalone="no"?><!DOCTYPE svg PUBLIC "-//W3C//DTD SVG 1.1//EN" "http://www.w3.org/Graphics/SVG/1.1/DTD/svg11.dtd"><svg width="100%" height="100%" viewBox="0 0 18 18" version="1.1" xmlns="http://www.w3.org/2000/svg" xmlns:xlink="http://www.w3.org/1999/xlink" xml:space="preserve" style="fill-rule:evenodd;clip-rule:evenodd;stroke-linejoin:round;stroke-miterlimit:1.41421;"><path d="M14.483,10.436c-0.011,1.787 -1.465,3.064 -3.255,3.064l-3.743,0c-1.79,0 -2.985,-1.087 -2.985,-2.875l0,-3.8c0,-1.793 1.195,-3.325 2.985,-3.325l2.278,0c0.842,0 2.064,0.853 2.516,1.81c0.124,0.269 0.19,0.326 0.293,1.123c0.056,0.409 0.082,0.72 0.264,0.889c0.259,0.234 1.217,0.079 1.407,0.228l0.145,0.116l0.084,0.18l0.032,0.05l-0.021,2.54ZM9.083,0c-5.017,0 -9.083,4.067 -9.083,9.083c0,5.018 4.066,9.083 9.083,9.083c5.016,0 9.083,-4.065 9.083,-9.083c0,-5.016 -4.067,-9.083 -9.083,-9.083" style="fill:#f06eaa;"/><path d="M9.3316,6.2276l-1.804,0c-0.345,0 -0.624,0.28 -0.624,0.621c0,0.34 0.279,0.623 0.624,0.623l1.804,0c0.345,0 0.625,-0.283 0.625,-0.623c0,-0.341 -0.28,-0.621 -0.625,-0.621" style="fill:#f06eaa;"/><path d="M11.1964,9.9566l-3.669,0c-0.345,0 -0.623,0.279 -0.623,0.619c0,0.339 0.278,0.62 0.623,0.62l3.669,0c0.342,0 0.62,-0.281 0.62,-0.62c0,-0.34 -0.278,-0.619 -0.62,-0.619" style="fill:#f06eaa;"/></svg>