<?xml version="1.0" standalone="no"?><!DOCTYPE svg PUBLIC "-//W3C//DTD SVG 1.1//EN" "http://www.w3.org/Graphics/SVG/1.1/DTD/svg11.dtd"><svg width="100%" height="100%" viewBox="0 0 76 75" version="1.1" xmlns="http://www.w3.org/2000/svg" xmlns:xlink="http://www.w3.org/1999/xlink" xml:space="preserve" style="fill-rule:evenodd;clip-rule:evenodd;stroke-linejoin:round;stroke-miterlimit:1.41421;"><path d="M76.0458,38.025c0,-21.0042 -17.0292,-38.025 -38.0208,-38.025c-21.0083,0 -38.025,17.0208 -38.025,38.025c0,20.1167 15.6417,36.6042 35.4333,37.9333l0,-30.65l-5.82083,0l0,-10.1958l5.82083,0l0,-1.72917c0,-5.37083 1.6375,-11.2958 5.65,-14.9333c3.45833,-3.27083 8.29167,-4.45417 12.2917,-4.45417c3.09167,0 5.4625,0.3625 7.36667,0.908333l-0.541667,10.6417c-1.1875,-0.358333 -2.6375,-0.629167 -4.45417,-0.629167c-4.55833,0 -6.46667,3.54583 -6.46667,7.92083l0,2.275l8.9125,0l0,10.1958l-8.81667,0l0,29.0208c15.45,-4.825 26.6708,-19.2583 26.6708,-36.3042" style="fill:#f06eaa;fill-rule:nonzero;"/></svg>