
<svg xmlns="http://www.w3.org/2000/svg" version="1.1" xmlns:xlink="http://www.w3.org/1999/xlink" preserveAspectRatio="none" x="0px" y="0px" width="1380px" height="1380px" viewBox="0 0 1380 1380">
<defs>
<g id="Layer1_0_FILL">
<path fill="#FFFFFF" stroke="none" d="
M 1380 1380
L 1380 0 0 0 0 1380 1380 1380
M 861.8 61.65
L 877 69.15 846.8 130.05 831.6 122.5 861.8 61.65
M 889.9 156.45
L 876.1 146.55 915.6 91.25 929.45 101.15 889.9 156.45
M 745.75 28.85
L 762.45 31.8 750.7 98.7 734 95.75 745.75 28.85
M 701.95 25.35
L 701.95 93.3 684.95 93.3 684.95 25.35 701.95 25.35
M 799.6 110.7
L 783.5 105.35 804.95 40.9 821.05 46.25 799.6 110.7
M 688.45 304.8
L 755.4 218.8 820.4 304.8 896.4 204.8 984.4 304.8 820.4 304.8 688.45 304.8 554.45 304.8 381.45 304.8 478.45 206.8 554.45 304.8 623.45 217.8 688.45 304.8
M 774.9 190.85
L 864.95 190.85 820.4 251.85 774.9 190.85
M 734 190.85
L 689.45 251.85 643.95 190.85 734 190.85
M 835.25 590.55
L 927 486.2
Q 977.45 516.05 1021.95 560.15 1159.45 696.45 1159.45 889.25 1159.45 1082.1 1021.95 1218.5 923.25 1316.25 795.2 1343.85 744.85 1354.7 689.95 1354.7 635.1 1354.7 584.75 1343.85 456.75 1316.25 358.05 1218.5 220.55 1082.1 220.55 889.25 220.55 696.45 358.05 560.15 398.9 519.6 444.85 491.15
L 537.95 594
Q 492.95 617.15 454.25 655.5 356.6 752.3 356.6 889.25 356.6 1026.2 454.25 1123.1 551.9 1219.8 690 1219.8 828.15 1219.8 925.8 1123.1 1023.45 1026.2 1023.45 889.25 1023.45 752.3 925.8 655.5 884.2 614.25 835.25 590.55
M 983.4 341.85
L 685.45 680.8 378.45 341.85 983.4 341.85
M 624.45 31.8
L 641.15 28.85 652.9 95.75 636.2 98.7 624.45 31.8
M 509.9 69.15
L 525.1 61.65 555.3 122.5 540.1 130.05 509.9 69.15
M 510.8 146.55
L 497 156.45 457.45 101.15 471.3 91.25 510.8 146.55
M 603.4 105.35
L 587.3 110.7 565.85 46.25 581.95 40.9 603.4 105.35
M 510.95 190.85
L 601 190.85 556.45 251.85 510.95 190.85 Z"/>
</g>
</defs>

<g transform="matrix( 1, 0, 0, 1, 0,0) ">
<use xlink:href="#Layer1_0_FILL"/>
</g>
</svg>
