<?xml version="1.0" standalone="no"?><!DOCTYPE svg PUBLIC "-//W3C//DTD SVG 1.1//EN" "http://www.w3.org/Graphics/SVG/1.1/DTD/svg11.dtd"><svg width="100%" height="100%" viewBox="0 0 76 76" version="1.1" xmlns="http://www.w3.org/2000/svg" xmlns:xlink="http://www.w3.org/1999/xlink" xml:space="preserve" style="fill-rule:evenodd;clip-rule:evenodd;stroke-linejoin:round;stroke-miterlimit:1.41421;"><path d="M38.025,0c-21.0042,0 -38.025,17.025 -38.025,38.0167c0,7.49583 2.17083,14.4917 5.9125,20.3792c0.866667,0.258333 1.75833,0.458333 2.67083,0.5625c6.6375,0.741667 12.125,-1.95417 15.425,-5.07917c-1.77917,-0.645833 -5.1125,-0.904167 -4.40417,-4.57917c0.529167,-0.708333 1.25833,-1.23333 1.8625,-1.87083c-4.15833,0.0541667 -6.41667,-1.82917 -7.97083,-4.40833c0.679167,-1.30417 2.4375,-1.50417 3.7375,-2.1875c-3.3,-1.27083 -6.30833,-2.85 -6.60833,-7.12083c1.14583,-0.370833 2.54583,-0.466667 3.55,-0.520833c-2.77917,-1.8375 -5.65,-4.50417 -5.4125,-8.79167c8.24167,2.975 17.8458,6.08333 23.5458,12.1833c3.00833,-6.53333 5.6625,-13.4083 11.3542,-17.2708c0.704167,0.220833 0.00833333,0.866667 -0.179167,1.18333c1.43333,-0.0583333 2.68333,-1.71667 4.92917,-1.525c-0.0458333,0.754167 -0.533333,1.05 -0.866667,1.525c0.920833,0.254167 2.91667,-1.225 4.075,-0.166667c-0.0666667,2.7 -3.50417,2.0125 -5.2375,3.05c8.75417,0.820833 12.6917,6.4875 14.9,13.8792c2.93333,0.4 5.82917,-0.0916667 7.95833,-1.025c-0.420833,2.7 -3.67083,4.02083 -6.60417,4.77083c1.72917,0.966667 4.61667,0.7125 6.94583,0.666667c-1.55,2.16667 -4.14167,3.3125 -7.96667,3.2125c-1.35417,2.83333 -2.25833,5.85417 -4.05833,8.47083c-4.84583,7.075 -13.6958,13.0833 -24.0667,14.5792c-8.70417,1.25 -16.0875,0.0208333 -22.1,-2.76667c6.85833,6.72917 16.2625,10.8875 26.6333,10.8875c21.0083,0 38.0292,-17.0333 38.0292,-38.0375c0,-20.9917 -17.0208,-38.0167 -38.0292,-38.0167" style="fill:#f06eaa;fill-rule:nonzero;"/></svg>