<?xml version="1.0" standalone="no"?><!DOCTYPE svg PUBLIC "-//W3C//DTD SVG 1.1//EN" "http://www.w3.org/Graphics/SVG/1.1/DTD/svg11.dtd"><svg width="100%" height="100%" viewBox="0 0 74 75" version="1.1" xmlns="http://www.w3.org/2000/svg" xmlns:xlink="http://www.w3.org/1999/xlink" xml:space="preserve" style="fill-rule:evenodd;clip-rule:evenodd;stroke-linejoin:round;stroke-miterlimit:1.41421;"><clipPath id="tag1"><path d="M15.65,0c-8.64583,0 -15.65,7.11667 -15.65,15.8917l0,43.7833c0,8.77917 7.00417,15.9 15.65,15.9l43.0833,0c8.64583,0 15.6417,-7.12083 15.6417,-15.9l0,-43.7833c0,-8.775 -6.99583,-15.8917 -15.6417,-15.8917l-43.0833,0Z"/></clipPath><g clip-path="url(#tag1)"><path d="M36.8792,48.9354c-6.10417,-0.216667 -10.9958,-5.38333 -10.7833,-11.3708c0.2125,-6.19583 5.20833,-10.9917 11.2833,-10.8292c6.18333,0.175 11.075,5.41667 10.8125,11.575c-0.258333,5.91667 -5.5,10.8417 -11.3125,10.625M37.1417,22.8771c-8.33333,-0.00416667 -15.0292,6.5875 -15.0333,14.8083c-0.00833333,8.39583 6.6875,15.1292 15.0125,15.0875c8.275,-0.05 14.9167,-6.69167 14.9292,-14.9458c0.0125,-8.24583 -6.66667,-14.9417 -14.9083,-14.95" style="fill:#f06eaa;fill-rule:nonzero;"/><path d="M53.2487,26.6842c5.1,10.6583 3.82917,19.6083 -3.47083,25.8542c-6.86667,5.88333 -16.6,6.3125 -24.0917,1c-3.59167,-2.55417 -5.95417,-6.02917 -7.25417,-10.2458c-1.8,-5.85 -0.583333,-11.2708 2.525,-16.5083l-21.7083,0c0,11.8208 -0.216667,23.4542 0.0833333,35.0583c0.191667,7.94583 6.8375,13.7417 15,13.75c15.0292,0.025 30.0583,0.0166667 45.0917,0c9.3625,-0.0166667 15.725,-6.42083 15.7333,-15.7875l0,-30.6875l0,-2.43333l-21.9083,0Z" style="fill:#f06eaa;fill-rule:nonzero;"/><path d="M68.2067,15.7425c0.0208333,2.0375 -0.991667,2.975 -3.00417,2.9375c-1.22917,-0.0208333 -2.4625,0 -3.7,0c-6.225,0.00416667 -6.1875,0.00416667 -6.22917,-6.2375c-0.0375,-7.0875 -0.354167,-7.00417 6.98333,-6.92917c5.95,0.0541667 5.95,0 5.95,5.825c0,1.46667 -0.0208333,2.93333 0,4.40417M59.3608,-0.761667c-12.5583,-0.00833333 -25.1167,-0.00833333 -37.675,-0.00833333l-2.74583,0l0,18.8792l-2.94583,0c-0.05,-0.879167 -0.125,-1.7125 -0.125,-2.54583c-0.00833333,-4.8875 -0.0333333,-9.775 0.0208333,-14.6542c0.0125,-1.43333 -0.375,-2.06667 -2.10833,-1.375l0,18.5292l-3.20417,0l0,-18.0917c-0.291667,-0.0875 -0.579167,-0.170833 -0.866667,-0.258333c-0.370833,0.716667 -1.0375,1.41667 -1.06667,2.15c-0.129167,2.78333 -0.0541667,5.57917 -0.0541667,8.37917l0,7.8l-3.30417,0l0,-15.7292c-5.75,4.30417 -8.05,13.4417 -5.65417,21.8833c7.05417,0 14.175,0.075 21.3,-0.0541667c1.25417,-0.0208333 2.71667,-0.558333 3.70417,-1.325c7.675,-6.02917 17.5333,-5.98333 25.0333,0.204167c0.625,0.516667 1.4375,1.1375 2.17083,1.14167c7.66667,0.0875 15.3292,0.0541667 23.3167,0.0541667l0,-9.15833c0,-9.275 -6.51667,-15.8125 -15.7958,-15.8208" style="fill:#f06eaa;fill-rule:nonzero;"/></g></svg>