<?xml version="1.0" standalone="no"?><!DOCTYPE svg PUBLIC "-//W3C//DTD SVG 1.1//EN" "http://www.w3.org/Graphics/SVG/1.1/DTD/svg11.dtd"><svg width="100%" height="100%" viewBox="0 0 75 75" version="1.1" xmlns="http://www.w3.org/2000/svg" xmlns:xlink="http://www.w3.org/1999/xlink" xml:space="preserve" style="fill-rule:evenodd;clip-rule:evenodd;stroke-linejoin:round;stroke-miterlimit:1.41421;"><path d="M41.0333,28.4708c1.1125,-0.1875 2.10417,-0.45 3.11667,-0.504167c1.85,-0.108333 2.9625,0.7875 3.16667,2.48333c0.0708333,0.520833 0.0708333,1.06667 -0.0458333,1.57917c-0.95,4.01667 -3.2125,7.3 -5.90417,10.3375c-0.0625,0.075 -0.158333,0.129167 -0.245833,0.179167c-1.0125,0.779167 -1.7625,0.695833 -2.42083,-0.416667c-0.454167,-0.766667 -0.833333,-1.59583 -1.10833,-2.45c-1.27083,-3.79583 -1.72083,-7.77083 -2.44167,-11.7c-0.358333,-1.92917 -0.720833,-3.89167 -1.35417,-5.75c-0.754167,-2.1375 -2.29583,-3.5 -4.73333,-3.53333c-1.6375,-0.0208333 -3.0125,0.695833 -4.19583,1.6625c-3.27917,2.65417 -6.46667,5.41667 -9.73333,8.15c0.7625,0.9875 1.44583,1.85417 2.12917,2.74583c0.9375,-0.591667 1.83333,-1.19167 2.75,-1.73333c0.845833,-0.508333 1.35833,-0.4375 2.09167,0.233333c0.220833,0.195833 0.4625,0.416667 0.583333,0.679167c0.75,1.63333 1.64583,3.23333 2.15417,4.9375c1.4,4.70833 2.59583,9.475 3.96667,14.1875c0.65,2.25417 1.69583,4.3625 3.4,6.0375c1.2375,1.2375 2.71667,1.67917 4.475,1.35c2.70833,-0.520833 4.89583,-2.02083 6.9375,-3.75c3.15833,-2.67917 5.76667,-5.875 8.2375,-9.17083c2.82083,-3.7375 5.4625,-7.57917 7.1875,-11.9792c1.1125,-2.85 1.53333,-5.75833 0.858333,-8.75833c-0.5375,-2.44167 -1.8375,-4.27917 -4.4,-4.79583c-3.12083,-0.633333 -6.11667,-0.229167 -8.81667,1.55833c-3.025,2.00417 -4.55417,5.05417 -5.65417,8.42083M0,39.9875l0,-4.52917c0.0375,-0.216667 0.1125,-0.429167 0.125,-0.641667c0.283333,-3.99583 1.1375,-7.86667 2.75833,-11.525c5.47917,-12.4125 14.8708,-19.9958 28.1917,-22.6792c1.45,-0.291667 2.925,-0.408333 4.38333,-0.6125l4.525,0c0.170833,0.0458333 0.329167,0.116667 0.495833,0.129167c5.27083,0.345833 10.2625,1.73333 14.8708,4.26667c10.6667,5.87083 17.2042,14.7875 19.5,26.7583c0.270833,1.4125 0.404167,2.87083 0.6,4.30417l0,4.52917c-0.0458333,0.229167 -0.1125,0.425 -0.125,0.641667c-0.291667,3.99583 -1.15,7.87083 -2.77083,11.5333c-5.475,12.4042 -14.8708,20.0042 -28.1917,22.6625c-1.4375,0.304167 -2.91667,0.416667 -4.37917,0.625l-4.525,0c-0.191667,-0.0458333 -0.383333,-0.116667 -0.566667,-0.133333c-6.52083,-0.466667 -12.5125,-2.46667 -17.9042,-6.10833c-8.92917,-6.00417 -14.4208,-14.3208 -16.3917,-24.9083c-0.275,-1.42917 -0.404167,-2.87917 -0.595833,-4.3125" style="fill:#f06eaa;fill-rule:nonzero;"/></svg>